<svg width="44" height="44" viewBox="0 0 44 44" fill="none" xmlns="http://www.w3.org/2000/svg">
<g clip-path="url(#clip0_1146_2620)">
<path opacity="0.927" fill-rule="evenodd" clip-rule="evenodd" d="M19.9805 -0.0429688C21.2981 -0.0429688 22.6159 -0.0429688 23.9336 -0.0429688C32.6022 1.06106 38.7467 5.58711 42.3672 13.5352C43.1833 15.6251 43.7132 17.7735 43.957 19.9805C43.957 21.2981 43.957 22.6159 43.957 23.9336C42.8913 32.3256 38.5658 38.3842 30.9805 42.1094C28.7126 43.0773 26.3636 43.6931 23.9336 43.957C22.6159 43.957 21.2981 43.957 19.9805 43.957C15.6254 43.5322 11.744 41.9567 8.33594 39.2305C8.17485 38.5327 8.44699 38.2033 9.15234 38.2422C15.6772 42.9713 22.6955 43.8593 30.207 40.9062C36.9102 37.7441 40.9637 32.5163 42.3672 25.2227C43.3408 16.9324 40.5478 10.2436 33.9883 5.15625C27.6106 0.87328 20.8502 0.157136 13.707 3.00781C6.51607 6.44905 2.40538 12.1352 1.375 20.0664C0.914366 26.4441 2.89093 31.9155 7.30469 36.4805C7.70072 37.3353 7.42858 37.722 6.48828 37.6406C2.68406 33.8561 0.506981 29.2871 -0.0429688 23.9336C-0.0429688 22.6159 -0.0429688 21.2981 -0.0429688 19.9805C1.06103 11.312 5.58707 5.16743 13.5352 1.54688C15.6252 0.730723 17.7736 0.200775 19.9805 -0.0429688ZM21.4414 12.8477C21.9316 12.1816 22.261 11.4369 22.4297 10.6133C22.6571 8.66379 21.7977 7.57529 19.8516 7.34766C18.7273 7.39447 17.7533 7.79551 16.9297 8.55078C16.8724 8.49349 16.8724 8.4362 16.9297 8.37891C18.0315 7.08556 19.4208 6.55561 21.0977 6.78906C22.7902 7.43803 23.4347 8.65545 23.0312 10.4414C22.7788 11.4351 22.2488 12.2372 21.4414 12.8477ZM19.5508 8.72266C20.6663 8.7065 21.1676 9.25083 21.0547 10.3555C20.5416 12.1003 19.3957 13.1603 17.6172 13.5352C16.8129 13.4472 16.3976 13.0032 16.3711 12.2031C16.6995 10.371 17.7593 9.21087 19.5508 8.72266ZM28.0586 15.5977C28.6364 15.6269 29.2093 15.6985 29.7773 15.8125C28.7031 16.8867 27.6289 17.9609 26.5547 19.0352C26.1858 18.7868 25.8277 18.529 25.4805 18.2617C26.3416 17.3719 27.201 16.4839 28.0586 15.5977ZM30.8945 24.8789C32.7375 24.8151 33.9263 25.6744 34.4609 27.457C34.6485 28.134 34.7057 28.8215 34.6328 29.5195C34.4998 28.4325 34.0988 27.4586 33.4297 26.5977C31.921 25.3651 30.5174 25.4797 29.2188 26.9414C28.7103 27.6931 28.4239 28.5239 28.3594 29.4336C28.1312 27.9126 28.5752 26.6093 29.6914 25.5234C30.0622 25.238 30.4633 25.0231 30.8945 24.8789ZM31.1523 27.1133C32.1115 27.1973 32.7274 27.713 33 28.6602C33.3578 29.8537 33.2431 30.9995 32.6562 32.0977C31.7571 33.1686 30.9263 33.1113 30.1641 31.9258C29.5339 30.6367 29.5339 29.3477 30.1641 28.0586C30.4279 27.6656 30.7574 27.3506 31.1523 27.1133Z" fill="#212426"/>
<path opacity="0.929" fill-rule="evenodd" clip-rule="evenodd" d="M20.5812 2.62112C27.7211 2.35769 33.436 5.0504 37.7257 10.6992C39.7172 13.5507 40.8774 16.7161 41.2062 20.1953C41.2396 21.0243 40.8672 21.2821 40.089 20.9688C39.9693 20.8681 39.8976 20.7392 39.8742 20.5821C39.1799 14.4205 36.215 9.7083 30.9796 6.44534C28.404 4.94909 25.6254 4.13269 22.6437 3.99612C22.6294 4.6556 22.6437 5.31445 22.6867 5.97268C24.2085 7.15706 24.7814 8.70395 24.4054 10.6133C24.1547 11.7931 23.5961 12.7958 22.7296 13.6211C22.6151 14.9675 22.6151 16.3138 22.7296 17.6602C23.2099 17.485 23.6969 17.4421 24.1906 17.5313C25.1932 16.5286 26.1958 15.5261 27.1984 14.5235C27.7039 14.2372 28.2481 14.1513 28.8312 14.2657C29.5548 14.3403 30.271 14.455 30.9796 14.6094C31.3425 14.8336 31.5143 15.163 31.4953 15.5977C31.4972 15.8095 31.4542 16.01 31.3664 16.1992C30.964 16.5873 30.5773 16.9882 30.2062 17.4024C30.5487 17.7878 30.9067 18.1602 31.2804 18.5196C31.6198 19.2948 31.3763 19.6815 30.5499 19.6797C30.0944 19.3102 29.6647 18.9092 29.2609 18.4766C29.2036 18.4193 29.1463 18.4193 29.089 18.4766C28.5018 19.0638 27.9145 19.6511 27.3273 20.2383C27.3445 20.9733 27.101 21.6035 26.5968 22.1289C26.8533 22.4284 27.1254 22.7149 27.4132 22.9883C27.8065 23.8496 27.5344 24.2363 26.5968 24.1485C26.2691 23.8924 25.9539 23.6203 25.6515 23.3321C25.1938 23.8618 24.7499 24.406 24.3195 24.9649C24.7592 27.5367 25.1889 30.1148 25.6085 32.6992C25.9809 33.0716 26.3534 33.4441 26.7257 33.8164C26.8805 34.3953 26.6657 34.7391 26.0812 34.8477C25.6989 34.7516 25.3837 34.5511 25.1359 34.2461C24.4938 35.0398 23.663 35.4409 22.6437 35.4492C22.6437 36.9388 22.6437 38.4284 22.6437 39.918C29.965 39.3322 35.2215 35.7515 38.4132 29.1758C39.2659 27.1687 39.7815 25.0776 39.9601 22.9024C40.2383 22.5802 40.5677 22.5086 40.9484 22.6875C41.1429 22.8404 41.2575 23.041 41.2921 23.2891C40.4614 31.0198 36.5369 36.5198 29.5187 39.7891C23.363 42.18 17.4333 41.7216 11.7296 38.4141C5.39811 34.1877 2.37597 28.2436 2.66323 20.5821C3.36435 13.6131 6.73024 8.38528 12.7609 4.89847C15.2267 3.61642 17.8334 2.85731 20.5812 2.62112ZM20.5812 3.99612C20.8104 3.99612 21.0395 3.99612 21.2687 3.99612C21.2687 4.45445 21.2687 4.91279 21.2687 5.37112C18.2724 5.17369 16.1383 6.43411 14.8664 9.15237C14.2553 10.7475 14.3985 12.2657 15.296 13.7071C16.49 15.0981 17.9939 15.5994 19.8078 15.211C20.2917 15.1265 20.75 14.969 21.1828 14.7383C21.283 15.9977 21.2973 17.2582 21.2257 18.5196C20.0011 19.311 18.755 20.0701 17.4875 20.7969C17.1437 21.1693 17.1437 21.5417 17.4875 21.9141C17.8456 22.0934 18.1893 22.0647 18.5187 21.8282C20.1531 20.7661 21.8288 19.7779 23.546 18.8633C24.249 19.1935 24.9222 19.5802 25.5656 20.0235C25.9572 20.3096 26.0002 20.639 25.6945 21.0117C24.8557 22.0874 23.9964 23.1473 23.1164 24.1914C22.9669 24.3814 22.8666 24.5962 22.8156 24.836C23.2735 27.2249 23.7174 29.6168 24.1476 32.0117C24.3426 32.8604 24.0704 33.5049 23.3312 33.9453C22.938 34.0722 22.5369 34.1009 22.1281 34.0313C19.8094 33.6209 17.4891 33.2199 15.1671 32.8282C14.3311 32.6222 13.8584 32.0923 13.7492 31.2383C13.5068 29.9299 13.4209 28.6122 13.4914 27.2852C13.8585 25.4908 14.8038 24.0872 16.3273 23.0742C16.5098 22.1693 16.1517 21.8685 15.2531 22.1719C14.4062 22.7753 13.69 23.5057 13.1046 24.3633C12.9199 24.2216 12.748 24.0641 12.589 23.8907C12.2024 23.6872 11.873 23.7589 11.6007 24.1055C11.5305 24.4032 11.5592 24.6897 11.6867 24.9649C11.9588 25.237 12.2309 25.5091 12.5031 25.7813C12.3009 26.2318 12.172 26.7045 12.1164 27.1992C12.0426 28.2497 12.0856 29.2953 12.2453 30.336C12.2309 30.4363 12.2166 30.5365 12.2023 30.6367C11.8299 31.0091 11.4575 31.3816 11.0851 31.7539C10.9265 32.67 11.2845 32.9708 12.1593 32.6563C12.2882 32.5274 12.4171 32.3985 12.546 32.2696C12.9052 33.2296 13.5783 33.8455 14.5656 34.1172C16.7994 34.5134 19.0338 34.9001 21.2687 35.2774C21.2687 36.8242 21.2687 38.3711 21.2687 39.918C15.0669 39.4755 10.2401 36.6969 6.78823 31.5821C3.7377 26.5143 3.19343 21.1862 5.15542 15.5977C8.06867 8.77511 13.2106 4.9079 20.5812 3.99612ZM21.4406 12.8477C22.248 12.2372 22.7779 11.4351 23.0304 10.4414C23.4339 8.65548 22.7894 7.43806 21.0968 6.78909C19.4199 6.55564 18.0307 7.08559 16.9289 8.37893C16.8715 8.43623 16.8715 8.49352 16.9289 8.55081C17.7525 7.79554 18.7265 7.3945 19.8507 7.34768C21.7969 7.57532 22.6562 8.66382 22.4289 10.6133C22.2602 11.4369 21.9308 12.1817 21.4406 12.8477ZM19.55 8.72268C17.7585 9.2109 16.6986 10.3711 16.3703 12.2032C16.3967 13.0032 16.8121 13.4473 17.6164 13.5352C19.3949 13.1603 20.5407 12.1004 21.0539 10.3555C21.1668 9.25086 20.6655 8.70653 19.55 8.72268ZM28.0578 15.5977C27.2002 16.484 26.3408 17.372 25.4796 18.2617C25.8269 18.529 26.1849 18.7868 26.5539 19.0352C27.6281 17.961 28.7023 16.8867 29.7765 15.8125C29.2085 15.6986 28.6356 15.6269 28.0578 15.5977ZM30.8937 24.8789C30.4625 25.0231 30.0614 25.238 29.6906 25.5235C28.5743 26.6093 28.1304 27.9126 28.3585 29.4336C28.4231 28.5239 28.7095 27.6931 29.2179 26.9414C30.5165 25.4797 31.9201 25.3651 33.4289 26.5977C34.098 27.4586 34.4989 28.4325 34.632 29.5196C34.7049 28.8215 34.6476 28.134 34.4601 27.4571C33.9255 25.6745 32.7366 24.8151 30.8937 24.8789ZM31.1515 27.1133C30.7565 27.3506 30.4271 27.6656 30.1632 28.0586C29.5331 29.3477 29.5331 30.6367 30.1632 31.9258C30.9255 33.1113 31.7563 33.1686 32.6554 32.0977C33.2423 30.9996 33.3569 29.8538 32.9992 28.6602C32.7266 27.713 32.1107 27.1974 31.1515 27.1133Z" fill="black"/>
<path opacity="0.9" fill-rule="evenodd" clip-rule="evenodd" d="M29.1751 8.55078C29.3114 8.60647 29.4547 8.64944 29.6048 8.67969C30.0201 9.09502 30.4355 9.51045 30.8509 9.92578C31.0732 10.348 31.0015 10.7061 30.636 11C30.3667 11.0679 30.1089 11.0393 29.8626 10.9141C29.4473 10.4987 29.0318 10.0833 28.6165 9.66797C28.4035 9.08746 28.5897 8.71509 29.1751 8.55078Z" fill="black"/>
<path opacity="0.898" fill-rule="evenodd" clip-rule="evenodd" d="M11.7307 10.2694C12.4743 10.2252 12.7751 10.569 12.6331 11.3006C12.189 11.7447 11.7451 12.1886 11.3011 12.6327C10.9214 12.812 10.592 12.7404 10.3128 12.4178C10.2426 12.1201 10.2713 11.8336 10.3987 11.5585C10.8337 11.1089 11.2778 10.6792 11.7307 10.2694Z" fill="black"/>
<path opacity="0.895" fill-rule="evenodd" clip-rule="evenodd" d="M27.0283 11.1289C27.7466 11.1436 28.0188 11.4874 27.8447 12.1602C27.4608 12.6301 27.0455 13.0741 26.5986 13.4922C25.769 13.751 25.4109 13.4502 25.5244 12.5898C26.0167 12.0831 26.518 11.5961 27.0283 11.1289Z" fill="black"/>
<path opacity="0.896" fill-rule="evenodd" clip-rule="evenodd" d="M8.12157 14.3944C8.33549 14.377 8.53601 14.42 8.72314 14.5233C9.16718 14.9673 9.61113 15.4113 10.0552 15.8553C10.1641 16.7206 9.80612 17.0214 8.98095 16.7577C8.59423 16.3709 8.20751 15.9842 7.82079 15.5975C7.57441 15.093 7.67467 14.692 8.12157 14.3944Z" fill="black"/>
<path opacity="0.897" fill-rule="evenodd" clip-rule="evenodd" d="M33.8167 15.3399C34.1155 15.3128 34.4021 15.3557 34.676 15.4688C35.0628 15.8555 35.4495 16.2423 35.8362 16.629C36.111 17.4682 35.8102 17.8263 34.9338 17.7032C34.4898 17.2592 34.0459 16.8152 33.6018 16.3712C33.4312 15.9797 33.5029 15.636 33.8167 15.3399Z" fill="black"/>
<path opacity="0.904" fill-rule="evenodd" clip-rule="evenodd" d="M13.8785 15.4258C14.1491 15.4009 14.4069 15.4439 14.6519 15.5547C15.0386 15.9414 15.4253 16.3281 15.812 16.7148C16.1266 17.5897 15.8258 17.9477 14.9097 17.789C14.4657 17.345 14.0217 16.9011 13.5777 16.457C13.4238 16.0444 13.524 15.7007 13.8785 15.4258Z" fill="black"/>
<path opacity="0.9" fill-rule="evenodd" clip-rule="evenodd" d="M18.52 16.8866C19.2636 16.8424 19.5644 17.1862 19.4224 17.9178C18.9783 18.3619 18.5344 18.8058 18.0904 19.2499C17.1793 19.4266 16.8786 19.0685 17.188 18.1756C17.623 17.7261 18.0671 17.2964 18.52 16.8866Z" fill="black"/>
<path opacity="0.893" fill-rule="evenodd" clip-rule="evenodd" d="M7.94977 17.832C8.66581 17.9026 8.90927 18.275 8.68024 18.9492C8.26488 19.3646 7.84951 19.78 7.43415 20.1953C6.96836 20.4407 6.61028 20.3405 6.35993 19.8945C6.29505 19.6536 6.32369 19.4245 6.44587 19.207C6.91454 18.6946 7.41584 18.2363 7.94977 17.832Z" fill="black"/>
<path opacity="0.896" fill-rule="evenodd" clip-rule="evenodd" d="M12.2456 18.1758C13.0598 18.087 13.3605 18.4308 13.1479 19.207C12.7039 19.6511 12.2599 20.095 11.8159 20.5391C10.8998 20.6977 10.599 20.3397 10.9136 19.4648C11.3486 19.0153 11.7926 18.5856 12.2456 18.1758Z" fill="black"/>
<path opacity="0.893" fill-rule="evenodd" clip-rule="evenodd" d="M36.4799 19.7227C37.199 19.786 37.4425 20.1584 37.2104 20.8398C36.7951 21.2552 36.3797 21.6706 35.9643 22.0859C35.062 22.3294 34.7326 22 34.976 21.0977C35.4447 20.5852 35.946 20.1269 36.4799 19.7227Z" fill="black"/>
<path opacity="0.887" fill-rule="evenodd" clip-rule="evenodd" d="M9.32498 23.5039C10.0261 23.4457 10.3268 23.7608 10.2273 24.4492C9.81482 24.9478 9.37078 25.4204 8.89529 25.8672C8.00613 26.1111 7.6767 25.7817 7.90701 24.8789C8.37067 24.4007 8.8433 23.9424 9.32498 23.5039Z" fill="black"/>
<path opacity="0.934" fill-rule="evenodd" clip-rule="evenodd" d="M30.722 23.5041C33.3716 23.4189 35.076 24.6506 35.8352 27.1995C36.4278 29.5979 35.8405 31.646 34.0735 33.344C31.7322 34.8241 29.684 34.4946 27.929 32.3557C26.5678 30.1566 26.5106 27.9222 27.7571 25.6526C28.4725 24.5491 29.4608 23.8329 30.722 23.5041ZM30.8938 24.8791C30.4626 25.0233 30.0615 25.2382 29.6907 25.5237C28.5745 26.6095 28.1305 27.9128 28.3587 29.4338C28.4232 28.5241 28.7096 27.6933 29.2181 26.9416C30.5167 25.4799 31.9203 25.3653 33.429 26.5979C34.0981 27.4588 34.4991 28.4327 34.6321 29.5198C34.705 28.8217 34.6478 28.1342 34.4602 27.4573C33.9256 25.6747 32.7368 24.8153 30.8938 24.8791ZM31.1516 27.1135C30.7567 27.3508 30.4272 27.6658 30.1634 28.0588C29.5332 29.3479 29.5332 30.6369 30.1634 31.926C30.9256 33.1115 31.7564 33.1688 32.6556 32.0979C33.2424 30.9998 33.3571 29.854 32.9993 28.6604C32.7267 27.7132 32.1108 27.1976 31.1516 27.1135Z" fill="black"/>
<path opacity="0.902" fill-rule="evenodd" clip-rule="evenodd" d="M15.9417 25.4805C16.1502 25.4824 16.3507 25.5254 16.5432 25.6094C17.2451 26.3112 17.9468 27.013 18.6487 27.7148C18.9075 28.5445 18.6068 28.9025 17.7464 28.7891C17.0159 28.0586 16.2854 27.3281 15.5549 26.5977C15.3056 26.0791 15.4345 25.7067 15.9417 25.4805Z" fill="black"/>
<path opacity="0.902" fill-rule="evenodd" clip-rule="evenodd" d="M15.2544 28.0587C15.4968 28.037 15.7259 28.08 15.9419 28.1876C16.6724 28.918 17.4029 29.6485 18.1333 30.379C18.2468 31.2394 17.8888 31.5402 17.0591 31.2813C16.3573 30.5795 15.6555 29.8777 14.9537 29.1759C14.7504 28.7127 14.8506 28.3402 15.2544 28.0587Z" fill="black"/>
<path opacity="0.895" fill-rule="evenodd" clip-rule="evenodd" d="M27.1992 35.0195C27.9001 34.9612 28.2009 35.2763 28.1016 35.9648C27.6891 36.4635 27.245 36.9361 26.7695 37.3828C26.1953 37.6113 25.8229 37.4252 25.6523 36.8242C25.7085 36.6854 25.7515 36.5422 25.7813 36.3945C26.2449 35.9164 26.7175 35.4581 27.1992 35.0195Z" fill="black"/>
<path opacity="0.894" fill-rule="evenodd" clip-rule="evenodd" d="M17.2298 35.9648C17.4383 35.9668 17.6388 36.0098 17.8313 36.0938C18.2467 36.5091 18.6621 36.9245 19.0774 37.3398C19.3841 37.9671 19.1978 38.3395 18.5188 38.457C18.3642 38.4504 18.221 38.4074 18.0891 38.3281C17.6738 37.9128 17.2584 37.4974 16.8431 37.082C16.6556 36.5988 16.7845 36.2264 17.2298 35.9648Z" fill="black"/>
</g>
<defs>
<clipPath id="clip0_1146_2620">
<rect width="44" height="44" fill="white"/>
</clipPath>
</defs>
</svg>
